<svg xmlns="http://www.w3.org/2000/svg" width="116" height="50" viewBox="0 0 116 50">
  <metadata><?xpacket begin="﻿" id="W5M0MpCehiHzreSzNTczkc9d"?>
<x:xmpmeta xmlns:x="adobe:ns:meta/" x:xmptk="Adobe XMP Core 5.6-c140 79.160451, 2017/05/06-01:08:21        ">
   <rdf:RDF xmlns:rdf="http://www.w3.org/1999/02/22-rdf-syntax-ns#">
      <rdf:Description rdf:about=""/>
   </rdf:RDF>
</x:xmpmeta>
                                                                                                    
                                                                                                    
                                                                                                    
                                                                                                    
                                                                                                    
                                                                                                    
                                                                                                    
                                                                                                    
                                                                                                    
                                                                                                    
                                                                                                    
                                                                                                    
                                                                                                    
                                                                                                    
                                                                                                    
                                                                                                    
                                                                                                    
                                                                                                    
                                                                                                    
                                                                                                    
                           
<?xpacket end="w"?></metadata>
<defs>
    <style>
      .cls-1 {
        fill: #fff;
        fill-rule: evenodd;
      }
    </style>
  </defs>
  <path id="Community_Calendar" data-name="Community Calendar" class="cls-1" d="M108.633,19.5c-1.156,1.767-3.063,2.839-5.432,3.823-1.59,3.823-3.554,8.458-6.068,9.413a1.476,1.476,0,0,1-1.965-.666,4.309,4.309,0,0,1-.867-2.4,4.623,4.623,0,0,1,.26-1.361c0.9-2.491,3.236-4.258,6.039-5.387l0.433-1.014a3.847,3.847,0,0,1-2.369.811,1.893,1.893,0,0,1-1.852-1.153,4.786,4.786,0,0,1-2.973,1.211A2.792,2.792,0,0,1,91.218,20.9a5.311,5.311,0,0,1-3.794,1.873A2.249,2.249,0,0,1,85.031,21.3a5.486,5.486,0,0,1-3.413,1.556c-1.936,0-2.774-.985-2.774-2.491,0-1.564,1.329-4.229,2.456-6.025,0.607-.956,1.069-1.709.867-1.709A8.759,8.759,0,0,0,78.9,15.238c-1.589,1.68-2.889,4.519-4.074,7.125a0.566,0.566,0,0,1-1.04.174,2.114,2.114,0,0,1-.473-0.7,4.636,4.636,0,0,1-2.706,1.015c-1.7,0-2.572-.84-2.687-2.143a5.244,5.244,0,0,1-3.756,2,1.859,1.859,0,0,1-1.934-1.442,5.365,5.365,0,0,1-3.44,1.528c-1.965,0-3.034-1.072-3.034-2.636a4.706,4.706,0,0,1,.433-1.883,39.322,39.322,0,0,1,2.08-3.592c0.636-.956,1.329-1.825,1.1-1.825s-0.838.29-2.543,2a25.067,25.067,0,0,0-4.854,7.7,0.636,0.636,0,0,1-1.156.174,1.975,1.975,0,0,1-.636-1.593A7.14,7.14,0,0,1,50.7,19a26.275,26.275,0,0,1,2.138-3.823c0.78-1.3,1.589-2.4,1.329-2.4-0.231,0-1.358.637-3.092,2.549A24.888,24.888,0,0,0,47,22.364c-0.2.463-.52,0.637-1.011,0.2a1.969,1.969,0,0,1-.573-0.829,5.556,5.556,0,0,1-3.067,1.118c-1.936-.029-3.005-1.1-3.005-2.636a4.3,4.3,0,0,1,.433-1.854,31.548,31.548,0,0,1,2.08-3.649,13.075,13.075,0,0,0,1.1-1.8c-0.145-.029-0.925.377-2.572,2.057a26.106,26.106,0,0,0-4.825,7.589A0.687,0.687,0,0,1,34.4,22.8a2.116,2.116,0,0,1-.578-1.564,6.251,6.251,0,0,1,.491-2.143,26.464,26.464,0,0,1,2.138-3.852c0.809-1.274,1.5-2.288,1.329-2.375-0.2-.087-1.358.666-3.092,2.578a25.24,25.24,0,0,0-4.045,7.009c-0.2.434-.52,0.521-1.011,0.145a1.873,1.873,0,0,1-.665-1.535,5.332,5.332,0,0,1,.26-1.535,24.43,24.43,0,0,1,1.474-3.3,4.157,4.157,0,0,1-1.7.319c-0.722,2.868-2.861,6.2-5.75,6.2a3.385,3.385,0,0,1-2.8-1.448,4.245,4.245,0,0,1-.78-2.491,8.353,8.353,0,0,1,1.242-4.084c1.1-1.941,2.89-3.765,4.739-3.765a2.243,2.243,0,0,1,2.167,1.043,4.215,4.215,0,0,1,1.416,3.476c1.531-.232,3.121-2.259,4.45-4.316a0.622,0.622,0,0,1,1.127,0,2.708,2.708,0,0,1,.376,1.3,4.317,4.317,0,0,1-.087.811c1.3-1.274,2.8-2.317,3.756-2.317s1.532,1.072,1.532,2.259c1.242-1.072,2.861-2.085,3.7-2.056a1.531,1.531,0,0,1,1.271,1.767,3.848,3.848,0,0,1-.318,1.535,27.565,27.565,0,0,1-1.387,2.462A13.34,13.34,0,0,0,42.466,19a3.581,3.581,0,0,0-.4,1.535,0.909,0.909,0,0,0,.751,1.1c0.9,0,2.159-1.4,3.155-3.064a57.865,57.865,0,0,1,4.1-7.566c0.376-.55.809-0.521,1.1,0a2.758,2.758,0,0,1,.4,1.39,4.036,4.036,0,0,1-.087.782c1.242-1.216,2.861-2.317,3.785-2.317S56.8,11.908,56.8,13.124c1.3-1.158,2.832-2.143,3.756-2.114a1.533,1.533,0,0,1,1.3,1.767c0,0.985-.607,2.317-1.791,4.142a7.732,7.732,0,0,0-1.56,3.534,0.94,0.94,0,0,0,.751,1.13c0.9,0,2.312-2.028,3.381-3.794a1.159,1.159,0,0,1,.154-0.208,34.369,34.369,0,0,1,3.6-6.454,0.729,0.729,0,0,1,1.242,0,2.158,2.158,0,0,1,.433,1.332c0,1.188-2.109,4.547-3.121,6.778-0.52,1.159-.607,2.23.029,2.23,0.751,0,2.283-1.97,3.756-4.287,1.7-2.78,2.456-4.75,3.5-6.082,0.4-.55.867-0.666,1.214-0.174a2.449,2.449,0,0,1,.433,1.506,8.844,8.844,0,0,1-1.618,3.939c-0.838,1.361-1.965,3.331-1.965,4.461,0,0.521.173,0.811,0.549,0.811,0.743,0,1.8-1.214,2.726-2.614a56.729,56.729,0,0,1,4.411-7.958c0.376-.55.809-0.521,1.1,0a2.619,2.619,0,0,1,.376,1.361,3.7,3.7,0,0,1-.029.579c1.242-1.159,2.629-2.114,3.67-2.114a2.007,2.007,0,0,1,1.618,2.114c0,0.637-.52,1.564-1.445,3.186-0.925,1.477-1.907,3.389-1.907,4.461,0,0.608.2,0.985,0.578,0.985,0.971,0,2.45-1.839,3.489-3.756A38.375,38.375,0,0,1,88.87,11.5c0.433-.579.78-0.637,1.156-0.2a2.888,2.888,0,0,1,.029,3.273c-0.549,1.245-1.878,3.418-2.369,4.576a5.1,5.1,0,0,0-.4,1.738c0,0.463.115,0.724,0.433,0.724,1.156,0,2.658-1.941,3.554-3.91a0.854,0.854,0,0,1,.154-0.243c0.042-.11.087-0.222,0.135-0.337a60.6,60.6,0,0,1,2.832-5.793,2.247,2.247,0,0,1-1.647-.782,1.555,1.555,0,0,1-.094-0.162,1.144,1.144,0,0,1-1.09.944,1.8,1.8,0,0,1-1.7-1.767A1.5,1.5,0,0,1,91.123,8a1.953,1.953,0,0,1,1.586,1.788,1,1,0,0,1,.581-0.108,16.485,16.485,0,0,0,2.08-.058c0.9-1.564,1.5-2.52,2.167-3.476,0.434-.637.78-0.608,1.1-0.058a2.612,2.612,0,0,1,.318,1.188,5.111,5.111,0,0,1-.462,2,2.083,2.083,0,0,1,1.589.927c0.289,0.521.087,0.869-.606,0.782a8.722,8.722,0,0,0-1.907.087c-1.1,1.883-2.745,4.75-3.756,6.951a5.508,5.508,0,0,0-.52,2.172c0,0.869.289,1.477,0.78,1.477,0.778,0,1.734-.869,2.584-2.121a6.532,6.532,0,0,1,.3-1.181,32.113,32.113,0,0,1,3.872-7.212c0.376-.492.809-0.521,1.127-0.058a2.62,2.62,0,0,1,.549,1.39,5.339,5.339,0,0,1-1.011,2.636,24.534,24.534,0,0,0-2.138,4.113c-0.4,1.043-.665,2.2.087,2.2s2.052-1.709,3.468-4.113c1.936-3.273,2.716-5.04,3.409-6.082,0.405-.521.78-0.579,1.1-0.261a1.859,1.859,0,0,1,.549,1.477,4.16,4.16,0,0,1-.52,1.941c-0.838,1.622-2.34,4.431-3.525,7.183a14.723,14.723,0,0,0,4.19-3.852c0.375-.521.809-0.579,0.924-0.2A2.44,2.44,0,0,1,108.633,19.5Zm-11.76,8.631c-0.722,1.361-.925,2.549-0.636,2.81,0.2,0.174.809-.666,1.618-2.085,0.607-1.072,1.3-2.491,1.994-4.055A9.626,9.626,0,0,0,96.873,28.128ZM24.812,13.761a10.449,10.449,0,0,0-1.676,2.23,8.568,8.568,0,0,0-1.185,4c0,0.84.2,1.274,0.607,1.274,0.694,0,1.965-1.072,3.034-3.012a10.345,10.345,0,0,0,.954-2.317A3.878,3.878,0,0,1,24.812,13.761Zm2.109-1.043a0.611,0.611,0,0,0-.433.7,2.9,2.9,0,0,0,.462,1.651,4.857,4.857,0,0,0,.4-1.738A0.507,0.507,0,0,0,26.921,12.719Zm-7.194-.7a0.693,0.693,0,0,1-1.127.434,2.149,2.149,0,0,1-.982-1.854,3.608,3.608,0,0,1,.173-1.072A12.424,12.424,0,0,1,18.282,8.2c0.4-1.014.751-1.941,0.4-2.317-0.694-.753-4.8,1.767-7.195,5.648A12.354,12.354,0,0,0,9.671,17.7c0,2.491,1.1,3.592,2.138,3.592,1.589,0,3.641-1.854,5.317-5.069a0.619,0.619,0,0,1,1.156.087,2.371,2.371,0,0,1,.2.956c0,1.68-1.56,3.36-2.6,4.142A6.382,6.382,0,0,1,12.156,22.6a5.161,5.161,0,0,1-2.543-.608,5.679,5.679,0,0,1-2.6-4.924C6.9,11.212,12.069,5.97,15.335,4.493A6.608,6.608,0,0,1,17.617,4a2.925,2.925,0,0,1,1.878.608,4.5,4.5,0,0,1,1.734,3.128,3.763,3.763,0,0,1-.4,1.68A20.067,20.067,0,0,0,19.727,12.023Zm6.5,15.128a2.925,2.925,0,0,1,1.878.608,4.5,4.5,0,0,1,1.734,3.128,3.762,3.762,0,0,1-.4,1.68,20.068,20.068,0,0,0-1.1,2.607,0.693,0.693,0,0,1-1.127.434,2.148,2.148,0,0,1-.982-1.854,3.605,3.605,0,0,1,.173-1.072,12.4,12.4,0,0,1,.491-1.332c0.4-1.014.751-1.941,0.4-2.317C26.6,28.281,22.5,30.8,20.1,34.682a12.354,12.354,0,0,0-1.82,6.169c0,2.491,1.1,3.592,2.138,3.592,1.589,0,3.641-1.854,5.317-5.069a0.619,0.619,0,0,1,1.156.087,2.371,2.371,0,0,1,.2.956c0,1.68-1.56,3.36-2.6,4.142a6.382,6.382,0,0,1-3.727,1.188,5.161,5.161,0,0,1-2.543-.608,5.679,5.679,0,0,1-2.6-4.924c-0.115-5.851,5.057-11.093,8.322-12.57A6.607,6.607,0,0,1,26.227,27.152Zm9.391,6.778A1.883,1.883,0,0,1,37.554,35.2l0.549-.9a0.676,0.676,0,0,1,1.185-.2,3.151,3.151,0,0,1,0,3.36c-0.751,1.593-3.178,4.75-3.178,6.691,0,0.434.115,0.7,0.4,0.7,1.04,0,2.485-1.969,3.438-3.852,0.029-.053.057-0.1,0.085-0.143a32.251,32.251,0,0,1,7.138-12.8,1.031,1.031,0,0,1,1.618-.2,2.828,2.828,0,0,1,.954,2.114,3.859,3.859,0,0,1-.173,1.217c-0.9,3.447-4.045,6.865-6.588,8.573a11.343,11.343,0,0,0-.953,3.794c0,0.7.173,1.188,0.549,1.188,1.236,0,2.772-1.679,3.864-3.591a7.672,7.672,0,0,1,.846-2.578c1.5-3.07,3.843-4.605,5.519-4.605a1.869,1.869,0,0,1,1.011.232A5.267,5.267,0,0,1,55.613,35.7a2.112,2.112,0,0,1,.289,1.072c0,1.738-1.936,4.779-4.479,4.779a3.707,3.707,0,0,1-2.052-.637,6.143,6.143,0,0,0-.26,1.709c0,1.274.52,2.172,1.387,2.172,1.862,0,3.537-1.541,4.726-3.105a60.772,60.772,0,0,1,4.2-7.467c0.376-.55.809-0.521,1.1,0A2.62,2.62,0,0,1,60.9,35.58a3.7,3.7,0,0,1-.029.579c1.242-1.159,2.63-2.114,3.67-2.114a2.007,2.007,0,0,1,1.618,2.114c0,0.637-.52,1.564-1.445,3.186-0.925,1.477-1.907,3.389-1.907,4.461,0,0.608.2,0.985,0.578,0.985,0.882,0,2.182-1.516,3.191-3.23a9.23,9.23,0,0,1,1.345-2.911c2.254-3.273,4.652-4.634,6.155-4.634a1.717,1.717,0,0,1,1.849,1.159c1.445-2.723,3.323-6,4.276-7.357,0.52-.724.925-0.666,1.214,0.029a2.942,2.942,0,0,1,.26,1.13,7.533,7.533,0,0,1-1.127,3.273c-1.676,3.186-4.132,7.241-5.49,10.109a4.783,4.783,0,0,0-.52,1.854c0,0.434.116,0.637,0.376,0.637,1.011,0,2.427-1.912,3.41-3.823a0.62,0.62,0,0,1,.449-0.4,9.214,9.214,0,0,1,1.082-2.062c2.311-3.331,4.652-4.634,6.183-4.634a1.812,1.812,0,0,1,1.849,1.217c0.231-.377.433-0.666,0.549-0.84,0.376-.463.78-0.608,1.156-0.2a2.2,2.2,0,0,1,.52,1.506,4.158,4.158,0,0,1-.433,1.8c-0.347.782-.809,1.477-1.243,2.288a27.136,27.136,0,0,0-1.416,2.636,5.836,5.836,0,0,0-.433,1.651c0,0.463.144,0.724,0.433,0.7,1.676-.174,4.016-3.476,5.346-7.56a1.407,1.407,0,0,1-.867-1.361c0-1.477,1.791-3.592,2.716-3.65a0.848,0.848,0,0,1,.9,1.014,9.217,9.217,0,0,1-.491,2.462,8.267,8.267,0,0,0,2.572-1.217c0.549-.377.838-0.463,1.243-0.029a3.08,3.08,0,0,1,.838,1.941,2.067,2.067,0,0,1-.433,1.159A17.083,17.083,0,0,0,95.66,42.3a4.169,4.169,0,0,0-.2,1.274c0,0.724.231,1.188,0.665,1.217,1.011,0.087,2.629-1.825,3.554-3.939,0.2-.463.694-0.434,0.925,0.145a2.533,2.533,0,0,1-.087,1.941,5.229,5.229,0,0,1-4.565,3.012,2.8,2.8,0,0,1-2.861-3.012,6,6,0,0,1,.231-1.535,14.931,14.931,0,0,1,2.861-4.547,5.75,5.75,0,0,1-2.109.521c-1.416,4-4.045,8.255-7.166,8.487a2.284,2.284,0,0,1-2.658-1.8A4.777,4.777,0,0,1,80.953,45.8a2.4,2.4,0,0,1-2.465-1.894,5.036,5.036,0,0,1-3.6,2.068c-1.416,0-2.369-.492-2.6-1.767a4.759,4.759,0,0,1-3.294,1.68,2.389,2.389,0,0,1-2.361-1.579,5.586,5.586,0,0,1-3.562,1.695c-1.936,0-2.774-.985-2.774-2.491,0-1.564,1.329-4.229,2.456-6.025,0.607-.956,1.069-1.709.867-1.709a8.758,8.758,0,0,0-3.265,2.607c-1.589,1.68-2.889,4.518-4.074,7.125a0.566,0.566,0,0,1-1.04.174,2.056,2.056,0,0,1-.6-1.177,7.268,7.268,0,0,1-4.078,1.438,3.817,3.817,0,0,1-3.795-2.209,6.17,6.17,0,0,1-4.151,2.123,2.553,2.553,0,0,1-2.689-1.786,5.048,5.048,0,0,1-3.581,1.93,2.321,2.321,0,0,1-2.514-1.825,5.46,5.46,0,0,1-3.294,1.709c-1.7,0-2.629-1.245-2.629-2.954a7.832,7.832,0,0,1,1.56-4.316C31.775,35.29,34.145,33.929,35.618,33.929Zm11.327-.2c0.983-1.651,1.358-2.925,1.185-3.041a11.774,11.774,0,0,0-1.849,2.781c-0.751,1.274-2.023,3.447-2.225,3.939A18.188,18.188,0,0,0,46.945,33.726Zm3.467,6.285a3.717,3.717,0,0,0,2.2-1.651c0.838-1.13,1.445-2.491,1.127-2.752-0.433-.348-2.572,1.419-3.959,4.2A1.166,1.166,0,0,0,50.412,40.012ZM81.241,44.53c0.954,0,2.341-1.68,3.756-4.171a10.492,10.492,0,0,0,1.618-4.113c0-.377-0.058-0.55-0.173-0.55-0.78,0-2.687,1.738-4.219,4.171a7.8,7.8,0,0,0-1.3,3.794C80.924,44.154,81.01,44.53,81.241,44.53ZM69.4,44.617c0.925,0,2.312-1.622,3.612-4.142,1.56-2.983,2.08-4.663,1.531-4.692-0.809-.029-2.716,1.738-4.248,4.171a7.8,7.8,0,0,0-1.329,3.765C68.962,44.24,69.077,44.617,69.4,44.617Zm-38.487,0c0.953,0,2.283-1.767,3.7-4.2a10.459,10.459,0,0,0,1.647-4.142c0-.348-0.058-0.55-0.347-0.55-0.578,0-2.572,1.825-4.045,4.2A8.166,8.166,0,0,0,30.5,43.748C30.5,44.269,30.619,44.617,30.908,44.617Z"/>
</svg>
